<svg id="レイヤー_1" data-name="レイヤー 1" xmlns="http://www.w3.org/2000/svg" viewBox="0 0 106.9 32.93">
  <defs>
    <style>
      .cls-1 {
        fill: #3e3834;
      }

      .cls-2 {
        fill: #3f3935;
      }

      .cls-3 {
        fill: #403a36;
      }

      .cls-4 {
        fill: #3f3835;
      }

      .cls-5 {
        fill: #413b37;
      }

      .cls-6 {
        fill: #403935;
      }

      .cls-7 {
        fill: #4e4743;
      }

      .cls-8 {
        fill: #4a433f;
      }

      .cls-9 {
        fill: #4f4843;
      }

      .cls-10 {
        fill: #4b443f;
      }

      .cls-11 {
        fill: #786f6a;
      }

      .cls-12 {
        fill: #6f6761;
      }

      .cls-13 {
        fill: #615954;
      }

      .cls-14 {
        fill: #59514c;
      }

      .cls-15 {
        fill: #7a716c;
      }

      .cls-16 {
        fill: #8a827d;
      }

      .cls-17 {
        fill: #413a36;
      }

      .cls-18 {
        fill: #6c645e;
      }

      .cls-19 {
        fill: #8d8580;
      }
    </style>
  </defs>
  <g>
    <path class="cls-1" d="M89.89,21.56l-3.61-.06c-.18,0-.42,0-.43-.2s.32-.14.47-.26c.43.05.81,0,.91-.52h0a19.65,19.65,0,0,0,.14-4.13c0-.35.19-.76-.15-1.07a38.07,38.07,0,0,0-5,0h-.36c-.38.11-.22.43-.22.66,0,.95,0,1.9,0,2.85a3.63,3.63,0,0,0,.22,1.9c.22.52.67.35,1,.35.2.18.11.34,0,.49a26.59,26.59,0,0,0-3.68,0H78.8a.31.31,0,0,1-.13-.5,1,1,0,0,0,1.22-1c.21-2.31.06-4.62.08-6.93a13,13,0,0,0-.08-2.92c0-.79-.56-.93-1.18-1-.26-.36,0-.47.27-.52h3.9a.31.31,0,0,1,0,.5c-.42-.12-.71.14-1,.34a18.74,18.74,0,0,0-.15,5.18s.11,0,.16,0a53.44,53.44,0,0,0,5.37,0,16.19,16.19,0,0,0,0-5h0c-.09-.56-.48-.6-.93-.54-.17-.09-.41-.05-.54-.52h4.48l.19.18c0,.24-.19.28-.37.34-.44-.06-.83,0-.92.54h0c-.19.19-.15.44-.15.67v9.43a.91.91,0,0,0,.15.68h0c.09.54.48.57.91.52l.29,0a.34.34,0,0,1-.12.48Z" transform="translate(-51.55 -8.53)"/>
    <path class="cls-1" d="M69.68,29.07c-.3.07-.53-.13-.8-.18,0-.19,0-.37.23-.37H73c.25,0,.27.18.2.38h0l-.53,0a.88.88,0,0,0-.56.29,1,1,0,0,0-.19.94v0a17.75,17.75,0,0,0,0,4.31h0a37.64,37.64,0,0,0,5.31.12c.4,0,.34-.34.34-.6,0-1.31,0-2.62,0-3.93,0-.34.08-.81-.45-.93h-.36c-.16-.09-.29-.28-.52-.21h0c-.13-.36.12-.38.37-.38h3.6c.26,0,.49,0,.4.38-.28,0-.58-.05-.81.18-.65.09-.55.62-.55,1,0,3.18,0,6.36,0,9.55a1,1,0,0,0,.18.76c0,.09,0,.14.12.16a1,1,0,0,0,.78.28c.25,0,.38.12.29.38l-.64.05-3.72,0c-.12-.27,0-.39.26-.4.88,0,1.07-.58,1.07-1.32,0-1.33,0-2.67,0-4,0-.19.14-.51-.28-.5a53.22,53.22,0,0,0-5.36,0,21,21,0,0,0,0,4.62.89.89,0,0,0,.91,1.17c.26,0,.48.06.33.41l-3.72,0-.64-.06c-.07-.37.19-.36.43-.38a.92.92,0,0,0,.95-1.05q0-4.93,0-9.88C70.23,29.55,70.22,29.11,69.68,29.07Z" transform="translate(-51.55 -8.53)"/>
    <path class="cls-2" d="M131.92,30.17a23.65,23.65,0,0,0,0,4.29c1.66.42,2.35,0,2.65-1.58,0-.28-.08-.77.51-.49v.21a11.82,11.82,0,0,0,0,3.36v.29c-.12.33.12.74-.18,1.11-.35-.28-.25-.66-.33-1-.14-.52-.17-1.12-.9-1.2-1.86-.38-1.86-.38-1.86,1.54,0,.91,0,1.82.06,2.74a1.09,1.09,0,0,0,.15.94v0a.41.41,0,0,0,.42.39,8,8,0,0,0,3.58-.2c1.45-.44,1.08-1.94,1.7-3.16a29.44,29.44,0,0,0,.23,3.37c0,.58-.38.45-.7.45H128.9c-.11-.25-.05-.4.25-.4.89,0,1.07-.56,1.07-1.29,0-.51,0-1,0-1.52,0-2.58,0-5.17,0-7.75,0-.65,0-1.39-1-1.35l-.36,0h0c-.15-.57.31-.38.54-.39,1.13,0,2.26,0,3.39,0a45.23,45.23,0,0,1,4.8.09v.47h0c-.32.87,0,1.8-.22,2.69l0,0,0,0c-.37-.45-.23-1-.41-1.52s-.34-1.1-1.06-1.14a6.31,6.31,0,0,0-3.77.13A1.06,1.06,0,0,0,131.92,30.17Z" transform="translate(-51.55 -8.53)"/>
    <path class="cls-2" d="M126.74,9.39l-.53,0c-.16-.13-.29-.33-.54-.19a1.11,1.11,0,0,0-.72,0h-.36c-.36.07-.22.37-.22.57q0,4.88,0,9.75a1.5,1.5,0,0,0,.2,1l.37.31h0a1.28,1.28,0,0,0,.92.16l.5.24v.06a4.36,4.36,0,0,1-2,.15c-1,0-2.06,0-3.1,0-.16,0-.39.05-.38-.22s.19-.18.33-.2c.78-.06,1.37-.34,1.44-1.23a6.9,6.9,0,0,0,.09-.78q0-4.56,0-9.11c0-.23.09-.48-.1-.68a2.06,2.06,0,0,0-1.25-.06,1.19,1.19,0,0,0-1,.17c-.16.11-.43.08-.48.35-.18,0-.34.14-.35.36-.51.7-.29,1.63-.8,2.36a10.17,10.17,0,0,1-.1-1.55,3.7,3.7,0,0,0-.17-1.65c-.31-.53.06-.52.41-.52h5.63c1.1,0,2.21,0,3.31,0,.6,0,.89.16.83.78-.3,1,.06,2-.24,3-.43-.39-.18-.88-.44-1.2l-.21-.3c.13-.33-.1-.6-.16-.9A.87.87,0,0,0,126.74,9.39Z" transform="translate(-51.55 -8.53)"/>
    <path class="cls-3" d="M61.09,8.7l4.77,0a2.23,2.23,0,0,0,1,.16l.36.16a4.94,4.94,0,0,1,1.9,1.11l.57,1.09v0a6.85,6.85,0,0,1,0,2.12c-.15.1-.12.24-.1.38a.1.1,0,0,0,0,.14l-.37.74h0l-.51.42c0-.26.15-.43.27-.63a4.16,4.16,0,0,0,.43-3.13C69,9.91,67,8.78,66.1,9.26c-.33,0-.65-.08-1-.09-1.32-.05-1.57.18-1.59,1.52,0,1.13,0,2.26,0,3.39,0,2,.35,2.21,2.31,1.71l.61-.16c-.18.24-.32.46.17.4l-.16.18a2.52,2.52,0,0,0-1.15.16c-1.78-.17-1.79-.17-1.78,1.57,0,.61,0,1.23.06,1.85s0,.94.52,1.16c.31.34.9-.15,1.28.61H60.74c-.24-.11-.33-.26-.16-.5h0l.35,0c.88.08.95-.55.95-1.17,0-1.84,0-3.69,0-5.54,0-1.34,0-2.68,0-4,0-.6-.14-1.16-1-1.07l-.33,0h0C60.27,8.55,60.88,8.82,61.09,8.7Z" transform="translate(-51.55 -8.53)"/>
    <path class="cls-3" d="M152.81,41.24l-5,0h-.36c-.19,0-.25-.19-.3-.35h0c1.43-.29,1.45-.32,1.46-1.81V37.52c0-2.41,0-4.82,0-7.23,0-.64,0-1.39-1-1.35l-.36,0h0c-.13-.25-.07-.41.23-.4,2.08.09,4.18-.2,6.26.2-.07,0-.2,0-.22.09s.09.09.15.12c.89.33,1.86.55,2.13,1.67a4.66,4.66,0,0,0-3.94-1.69c-1.44,0-1.64.16-1.64,1.63q0,4.2,0,8.39c0,1.79.08,1.88,1.81,1.95.36.18.79-.11,1.11.21Z" transform="translate(-51.55 -8.53)"/>
    <path class="cls-2" d="M145.31,21.33c-.27-.11-.44.43-.75.12-.07-.08-.3-.13,0-.27s.56-.19.6-.55a9.19,9.19,0,0,0,.91-9.67A3.29,3.29,0,0,0,143,9a3.09,3.09,0,0,0-2.9,2.17c-1.24,3.24-1.29,6.4,1,9.3l0,.23a2.34,2.34,0,0,1-.74-.76A9.14,9.14,0,0,1,141,9.5c.05-.05.13-.14,0-.2-.44,0-.67.52-1.13.44l.49-.48,1-.49.52-.08,1.73-.15a2.05,2.05,0,0,0,.95.16l.36.16.53.18a2.18,2.18,0,0,0,.86.43h0l1.1,1.07.13.17.77,1.45c0,.18-.06.37.12.51a12.39,12.39,0,0,1,.22,3.89l-.57,1.79c-.14.21-.34.39-.32.68a8.09,8.09,0,0,1-2,2Z" transform="translate(-51.55 -8.53)"/>
    <path class="cls-1" d="M53.17,29.79c-.23.4-.49.8-.15,1.27,0,1.19.89,1.71,1.79,2.2l0,0a9.61,9.61,0,0,0,2,1.27l0,0a1.5,1.5,0,0,0,.71.53,7.31,7.31,0,0,1,1.46,1.81.78.78,0,0,0,.18.67l-.06,1c-.19.21-.1.47-.11.71A5.73,5.73,0,0,1,58,40.54l-1.6.87-2.11,0,.37-.32c1.67-.07,2.42-.51,2.73-1.6a2.53,2.53,0,0,0-1.12-2.9v0c-.2-.25-.39-.51-.76-.5-.36-.18-.63-.52-1-.59,0-.06,0-.1,0-.12a6.45,6.45,0,0,0-1.56-1.14h0a10.47,10.47,0,0,1-.73-.89,3.06,3.06,0,0,1,1.54-4.8c.22.06.54,0,.56.34-.12.05-.31,0-.36.19A1.06,1.06,0,0,0,53.17,29.79Z" transform="translate(-51.55 -8.53)"/>
    <path class="cls-2" d="M99.2,41.28H96.87c-.35-.14-.81.15-1.12-.27,1.6-.52,1.6-.52,1-2.18,0-.09,0-.17-.07-.26,0-.29,0-.52-.36-.53l-.55-1.57c-.19-.34-.53-.22-.8-.22H91.32c0-.48.42,0,.58-.21,1,0,1.94,0,2.92,0,.58,0,.71-.13.49-.7-.53-1.34-1-2.7-1.5-4.06.08-.43-.47-.66-.34-1.11L94,28.85c.13-.4.34-.33.57-.09a1.61,1.61,0,0,0,.34.9,4.09,4.09,0,0,0,.55,1.43,1.68,1.68,0,0,0,.35.9,5.25,5.25,0,0,0,1.07,2.32,4.09,4.09,0,0,0,.55,1.43,1.66,1.66,0,0,0,.34.9,4,4,0,0,0,.55,1.42,1.68,1.68,0,0,0,.35.91,2.26,2.26,0,0,0,.55,1.25h0c.06.52.75.46.92.89C99.77,41.34,99.46,41.18,99.2,41.28Z" transform="translate(-51.55 -8.53)"/>
    <path class="cls-2" d="M113.25,41.24l-4.22,0c-.23-.19-.25-.39.08-.4,1.13,0,1.15-.8,1.15-1.62V30.49c0-.28.1-.6-.16-.84l-.17-.2c0-.33-.25-.41-.54-.34-.17-.09-.29-.28-.52-.22h0c-.09-.35.13-.4.39-.39l4.76,0c-.2.25-.49.17-.75.17-1.29,0-1.57.3-1.57,1.57s0,2.51,0,3.76c0,.29-.14.7.38.75h1.72c.13.05.3,0,.41.2-.64,0-1.26,0-1.87,0-.43,0-.66.12-.65.6,0,1.43,0,2.86,0,4.29,0,.57.17,1.1.94,1C112.93,40.89,113.35,40.66,113.25,41.24Z" transform="translate(-51.55 -8.53)"/>
    <path class="cls-4" d="M155.87,30.59c-.27-1.12-1.24-1.34-2.13-1.67-.06,0-.19,0-.15-.12s.15-.06.22-.09a5.77,5.77,0,0,1,2.43.76l1.25,1.28.21.31c0,.17.07.26.16.36a2.36,2.36,0,0,0,.37,1.07c0,.2-.08.4.1.56a14.26,14.26,0,0,1,.06,3.2l-.52,1.61-.56,1L156.22,40l-.5.39a.63.63,0,0,0-.55.3l-.35,0c-.24-.07-.55.13-.72-.2a3.75,3.75,0,0,0,2.31-2.86A11.28,11.28,0,0,0,155.87,30.59Z" transform="translate(-51.55 -8.53)"/>
    <path class="cls-2" d="M99,11.92l.34-.71a12.49,12.49,0,0,1,2-2,1.92,1.92,0,0,1,.89-.35c.28.1.63-.17.86.17l-1,.55c-.85.27-1.15,1-1.45,1.75a10,10,0,0,0-.58,4.09c0,2.42.59,4.56,2.93,5.91l-.46.05-1-.24h0a2.67,2.67,0,0,0-.91-.56l0,0c-.42-.48-.84-.95-1.27-1.42a9.69,9.69,0,0,1-.92-3.66A13.22,13.22,0,0,1,99,11.92Z" transform="translate(-51.55 -8.53)"/>
    <path class="cls-2" d="M106,8.86l1.58.8.16.13,1.09,1.27c1.44,3.38,1.36,6.57-1.25,9.42a1.79,1.79,0,0,0-.73.52h0l-.32.21-.48.05c-.13-.05-.43,0-.12-.27a6,6,0,0,0,1.54-1.92,10.42,10.42,0,0,0,.66-4.9,6.84,6.84,0,0,0-1.39-4.06c-.24-.31-.48-.71-1-.66l-.84-.37c.24-.35.61-.11.9-.19Z" transform="translate(-51.55 -8.53)"/>
    <path class="cls-5" d="M112.1,34.81c-.52-.05-.38-.46-.38-.75,0-1.25,0-2.5,0-3.76s.28-1.54,1.57-1.57c.26,0,.55.08.75-.17,3,0,4.42,1.81,3.55,4.61h0l-.73.9h0l-.15.18-1.06.58c-.23-.1-.37.11-.56.16s-.35.22-.18.41c.9,1,.91,2.3,1.21,3.48.55,2.09.5,2.11,2.51,2.3,0,0,0,0,.06.06a.31.31,0,0,0,0,.13c-.59,0-1.19.21-1.76-.11-.09-.27-.33-.39-.52-.56h0c-.09-.25-.11-.54-.38-.7s-.11-.47-.15-.71a6.88,6.88,0,0,0-.54-2.37l0,0a1.29,1.29,0,0,0-.4-1,1.71,1.71,0,0,0-1.44-.73,5.27,5.27,0,0,0-1.43,0c0,.06-.15.11-.15.17,0,1.47,0,2.94,0,4.41a1.09,1.09,0,0,0,.75,1.08c-.77.11-.93-.42-.94-1,0-1.43,0-2.86,0-4.29,0-.48.22-.61.65-.6.61,0,1.23,0,1.87,0-.11-.25-.28-.15-.41-.2.6-.24,1.3-.27,1.71-.87a3.7,3.7,0,0,0,.29-3.73c-.49-1.16-1.57-1.3-2.69-1.31-.83,0-1.21.38-1.21,1.18,0,1.42,0,2.85,0,4.27A.53.53,0,0,0,112.1,34.81Z" transform="translate(-51.55 -8.53)"/>
    <path class="cls-2" d="M139.92,9.74c.46.08.69-.44,1.13-.44.12.06,0,.15,0,.2a9.14,9.14,0,0,0-.73,10.43,2.34,2.34,0,0,0,.74.76l1,.64-.6.13-.21.12L141,21.4a2.73,2.73,0,0,0-1-.56h0a6.77,6.77,0,0,1-2.44-6.21A6,6,0,0,1,139.92,9.74Z" transform="translate(-51.55 -8.53)"/>
    <path class="cls-6" d="M66.62,16c-.49.06-.35-.16-.17-.4,2-1.72,1.82-5.14-.35-6.37.85-.48,2.92.65,3.22,2a4.16,4.16,0,0,1-.43,3.13c-.12.2-.3.37-.27.63l-.38.48a1,1,0,0,0-.77.35l-.65.22Z" transform="translate(-51.55 -8.53)"/>
    <path class="cls-5" d="M105.75,9.44c.51,0,.75.35,1,.66a6.84,6.84,0,0,1,1.39,4.06,10.42,10.42,0,0,1-.66,4.9A6,6,0,0,1,105.93,21c-.31.27,0,.22.12.27l-.61.31-1.13.18a.63.63,0,0,0-.55,0,2.65,2.65,0,0,0-1.15-.18l-.06-.14.46-.05c-2.34-1.35-2.9-3.49-2.93-5.91a10,10,0,0,1,.58-4.09c.3-.72.6-1.48,1.45-1.75-2.49,2.52-2.17,7.77-.8,9.89,1.47,2.28,4.08,2.39,5.53.18A8.91,8.91,0,0,0,105.75,9.44Z" transform="translate(-51.55 -8.53)"/>
    <path class="cls-7" d="M91.32,36.25H95c.27,0,.61-.12.8.22l-.34,0c-1.09,0-2.18,0-3.27,0a1,1,0,0,0-.87.48,1.88,1.88,0,0,0-.36,1h0a1.84,1.84,0,0,0-.38,1.08v0c-.45,1.23-.28,1.61.89,1.92.24.07.48.08.34.43H88.64l-.35-.18.22-.33h.07l.06,0a1.09,1.09,0,0,0,.94-.87h0c.71-1.12.94-2.45,1.55-3.62Z" transform="translate(-51.55 -8.53)"/>
    <path class="cls-8" d="M52.69,40.88c-.61-.61-.68.33-1.06.37a29.57,29.57,0,0,1,0-4.31c.47.22.28.58.48.77v0a4.44,4.44,0,0,0,1.28,2.87l-.54.3A.15.15,0,0,1,52.69,40.88Z" transform="translate(-51.55 -8.53)"/>
    <path class="cls-9" d="M58.35,32.12h-.28a4.85,4.85,0,0,0-1.47-3l.24-.24c.45.38.9.69,1.2-.15a.21.21,0,0,1,.26-.17c.2.05.15.22.15.36C58.42,30,58.39,31.06,58.35,32.12Z" transform="translate(-51.55 -8.53)"/>
    <path class="cls-10" d="M141.44,21.46l.6-.13-1-.64,0-.23a3.24,3.24,0,0,0,4.07.17c0,.36-.36.43-.6.55s0,.19,0,.27l.07.14a2.06,2.06,0,0,0-1.15.15,1.21,1.21,0,0,0-.73,0,2.59,2.59,0,0,0-1.17-.18Z" transform="translate(-51.55 -8.53)"/>
    <path class="cls-11" d="M105.81,8.88c-.29.08-.66-.16-.9.19h-1.77c-.23-.34-.58-.07-.86-.17a5.24,5.24,0,0,1,3.18-.23Z" transform="translate(-51.55 -8.53)"/>
    <path class="cls-12" d="M154.1,40.52c.17.33.48.13.72.2a.61.61,0,0,1,0,.14l-1.06.26-.54,0c-.32-.32-.75,0-1.11-.21Z" transform="translate(-51.55 -8.53)"/>
    <path class="cls-13" d="M53.4,40.56l1.29.49-.37.32-.21.1-1.25-.61Z" transform="translate(-51.55 -8.53)"/>
    <path class="cls-14" d="M53.8,28.42a4.9,4.9,0,0,1,1.75,0c-.19.36-.82-.06-.9.5h-.36c0-.37-.34-.28-.56-.34A.47.47,0,0,0,53.8,28.42Z" transform="translate(-51.55 -8.53)"/>
    <path class="cls-15" d="M93.81,31.27c-.12,0-.27-.24-.36,0q-.89,2.23-1.72,4.5c0,.06.11.19.17.28-.16.18-.54-.27-.58.21h-.19l.05-.5a1.85,1.85,0,0,0,.35-.9,4.56,4.56,0,0,0,.55-1.42,1.84,1.84,0,0,0,.34-.91A4,4,0,0,0,93,31.09a1.85,1.85,0,0,0,.35-.9l.15,0C93.34,30.61,93.89,30.84,93.81,31.27Z" transform="translate(-51.55 -8.53)"/>
    <path class="cls-16" d="M96.36,38.55l0-.51c.36,0,.41.24.36.53Z" transform="translate(-51.55 -8.53)"/>
    <path class="cls-17" d="M119.06,41.09c-.07.2-.22.16-.37.15s0-.06-.06-.06c-2-.19-2-.21-2.51-2.3-.3-1.18-.31-2.49-1.21-3.48-.17-.19,0-.31.18-.41,1.72.61,2.06,2.1,2.37,3.64a4.48,4.48,0,0,0,.7,2.09C118.34,41.13,118.85,40.74,119.06,41.09Z" transform="translate(-51.55 -8.53)"/>
    <path class="cls-18" d="M54.65,28.89c.08-.56.71-.14.9-.5h.52l.77.49-.24.24-.34-.06C55.73,29,55.22,28.7,54.65,28.89Z" transform="translate(-51.55 -8.53)"/>
    <path class="cls-19" d="M119.06,41.09c-.21-.35-.72,0-.9-.37.68.34,1-.56,1.58-.48v.27l-.54.56Z" transform="translate(-51.55 -8.53)"/>
  </g>
</svg>
